<?xml version="1.0" encoding="UTF-8" standalone="no"?>
<!-- Created with Inkscape (http://www.inkscape.org/) -->

<svg
   width="1920"
   height="1080"
   viewBox="0 0 1920 1080"
   version="1.1"
   id="svg1"
   inkscape:version="1.3.2 (091e20e, 2023-11-25, custom)"
   sodipodi:docname="Login Backgorund.svg"
   xmlns:inkscape="http://www.inkscape.org/namespaces/inkscape"
   xmlns:sodipodi="http://sodipodi.sourceforge.net/DTD/sodipodi-0.dtd"
   xmlns="http://www.w3.org/2000/svg"
   xmlns:svg="http://www.w3.org/2000/svg">
  <sodipodi:namedview
     id="namedview1"
     pagecolor="#ffffff"
     bordercolor="#000000"
     borderopacity="0.25"
     inkscape:showpageshadow="2"
     inkscape:pageopacity="0.0"
     inkscape:pagecheckerboard="0"
     inkscape:deskcolor="#d1d1d1"
     inkscape:document-units="px"
     inkscape:zoom="0.53645757"
     inkscape:cx="696.23401"
     inkscape:cy="357.90342"
     inkscape:window-width="2560"
     inkscape:window-height="1476"
     inkscape:window-x="-12"
     inkscape:window-y="-12"
     inkscape:window-maximized="1"
     inkscape:current-layer="layer1" />
  <defs
     id="defs1">
    <inkscape:path-effect
       effect="fillet_chamfer"
       id="path-effect1"
       is_visible="true"
       lpeversion="1"
       nodesatellites_param="F,0,0,1,0,20,0,1 @ F,0,0,1,0,20,0,1 @ F,0,0,1,0,20,0,1 @ F,0,0,1,0,20,0,1 @ F,0,0,1,0,20,0,1 @ F,0,0,1,0,20,0,1 @ F,0,0,1,0,20,0,1"
       radius="0"
       unit="px"
       method="auto"
       mode="F"
       chamfer_steps="1"
       flexible="false"
       use_knot_distance="true"
       apply_no_radius="true"
       apply_with_radius="true"
       only_selected="false"
       hide_knots="false" />
    <inkscape:path-effect
       effect="fillet_chamfer"
       id="path-effect1-5"
       is_visible="true"
       lpeversion="1"
       nodesatellites_param="F,0,0,1,0,20,0,1 @ F,0,0,1,0,20,0,1 @ F,0,0,1,0,20,0,1 @ F,0,0,1,0,20,0,1 @ F,0,0,1,0,20,0,1 @ F,0,0,1,0,20,0,1 @ F,0,0,1,0,20,0,1"
       radius="0"
       unit="px"
       method="auto"
       mode="F"
       chamfer_steps="1"
       flexible="false"
       use_knot_distance="true"
       apply_no_radius="true"
       apply_with_radius="true"
       only_selected="false"
       hide_knots="false" />
    <inkscape:path-effect
       effect="fillet_chamfer"
       id="path-effect1-1"
       is_visible="true"
       lpeversion="1"
       nodesatellites_param="F,0,0,1,0,20,0,1 @ F,0,0,1,0,20,0,1 @ F,0,0,1,0,20,0,1 @ F,0,0,1,0,20,0,1 @ F,0,0,1,0,20,0,1 @ F,0,0,1,0,20,0,1 @ F,0,0,1,0,20,0,1"
       radius="0"
       unit="px"
       method="auto"
       mode="F"
       chamfer_steps="1"
       flexible="false"
       use_knot_distance="true"
       apply_no_radius="true"
       apply_with_radius="true"
       only_selected="false"
       hide_knots="false" />
    <inkscape:path-effect
       effect="fillet_chamfer"
       id="path-effect1-57"
       is_visible="true"
       lpeversion="1"
       nodesatellites_param="F,0,0,1,0,20,0,1 @ F,0,0,1,0,20,0,1 @ F,0,0,1,0,20,0,1 @ F,0,0,1,0,20,0,1 @ F,0,0,1,0,20,0,1 @ F,0,0,1,0,20,0,1 @ F,0,0,1,0,20,0,1"
       radius="0"
       unit="px"
       method="auto"
       mode="F"
       chamfer_steps="1"
       flexible="false"
       use_knot_distance="true"
       apply_no_radius="true"
       apply_with_radius="true"
       only_selected="false"
       hide_knots="false" />
    <inkscape:path-effect
       effect="fillet_chamfer"
       id="path-effect1-57-7"
       is_visible="true"
       lpeversion="1"
       nodesatellites_param="F,0,0,1,0,20,0,1 @ F,0,0,1,0,20,0,1 @ F,0,0,1,0,20,0,1 @ F,0,0,1,0,20,0,1 @ F,0,0,1,0,20,0,1 @ F,0,0,1,0,20,0,1 @ F,0,0,1,0,20,0,1"
       radius="0"
       unit="px"
       method="auto"
       mode="F"
       chamfer_steps="1"
       flexible="false"
       use_knot_distance="true"
       apply_no_radius="true"
       apply_with_radius="true"
       only_selected="false"
       hide_knots="false" />
    <inkscape:path-effect
       effect="fillet_chamfer"
       id="path-effect1-57-7-8"
       is_visible="true"
       lpeversion="1"
       nodesatellites_param="F,0,0,1,0,20,0,1 @ F,0,0,1,0,20,0,1 @ F,0,0,1,0,20,0,1 @ F,0,0,1,0,20,0,1 @ F,0,0,1,0,20,0,1 @ F,0,0,1,0,20,0,1 @ F,0,0,1,0,20,0,1"
       radius="0"
       unit="px"
       method="auto"
       mode="F"
       chamfer_steps="1"
       flexible="false"
       use_knot_distance="true"
       apply_no_radius="true"
       apply_with_radius="true"
       only_selected="false"
       hide_knots="false" />
    <inkscape:path-effect
       effect="fillet_chamfer"
       id="path-effect1-57-7-8-0"
       is_visible="true"
       lpeversion="1"
       nodesatellites_param="F,0,0,1,0,20,0,1 @ F,0,0,1,0,20,0,1 @ F,0,0,1,0,20,0,1 @ F,0,0,1,0,20,0,1 @ F,0,0,1,0,20,0,1 @ F,0,0,1,0,20,0,1 @ F,0,0,1,0,20,0,1"
       radius="0"
       unit="px"
       method="auto"
       mode="F"
       chamfer_steps="1"
       flexible="false"
       use_knot_distance="true"
       apply_no_radius="true"
       apply_with_radius="true"
       only_selected="false"
       hide_knots="false" />
    <inkscape:path-effect
       effect="fillet_chamfer"
       id="path-effect1-57-7-5"
       is_visible="true"
       lpeversion="1"
       nodesatellites_param="F,0,0,1,0,20,0,1 @ F,0,0,1,0,20,0,1 @ F,0,0,1,0,20,0,1 @ F,0,0,1,0,20,0,1 @ F,0,0,1,0,20,0,1 @ F,0,0,1,0,20,0,1 @ F,0,0,1,0,20,0,1"
       radius="0"
       unit="px"
       method="auto"
       mode="F"
       chamfer_steps="1"
       flexible="false"
       use_knot_distance="true"
       apply_no_radius="true"
       apply_with_radius="true"
       only_selected="false"
       hide_knots="false" />
  </defs>
  <g
     inkscape:label="Layer 1"
     inkscape:groupmode="layer"
     id="layer1">
    <path
       style="fill:#1d4ed8;stroke-width:60.7189;fill-opacity:1"
       d="m 192,806.33342 h 690.6146 a 20,20 135 0 0 20,-20 v -77.96776 a 10.445224,10.445224 152.42368 0 1 16.41354,-8.57216 l 277.31666,193.08024 a 13.924901,13.924901 89.999988 0 1 0,22.85569 L 919.02814,1108.8098 a 10.445219,10.445219 27.576306 0 1 -16.41354,-8.5721 l 0,-77.9679 a 20,20 45 0 0 -20,-20 H 192 a 20,20 45 0 1 -20,-20 V 826.33342 a 20,20 135 0 1 20,-20 z"
       id="path2-7"
       sodipodi:nodetypes="cccccccc"
       inkscape:path-effect="#path-effect1-57"
       inkscape:original-d="M 172,806.33342 H 902.6146 V 688.36566 L 1212.7583,904.30158 902.6146,1120.2377 V 1002.2698 H 172 Z"
       transform="matrix(0.59691295,0.34462785,-0.34462785,0.59691295,679.58288,-681.35668)" />
    <path
       style="fill:#0ea5e9;stroke-width:60.7189;fill-opacity:1"
       d="m 192,806.33342 h 690.6146 a 20,20 135 0 0 20,-20 v -77.96776 a 10.445224,10.445224 152.42368 0 1 16.41354,-8.57216 l 277.31666,193.08024 a 13.924901,13.924901 89.999988 0 1 0,22.85569 L 919.02814,1108.8098 a 10.445219,10.445219 27.576306 0 1 -16.41354,-8.5721 l 0,-77.9679 a 20,20 45 0 0 -20,-20 H 192 a 20,20 45 0 1 -20,-20 V 826.33342 a 20,20 135 0 1 20,-20 z"
       id="path2-7-2"
       sodipodi:nodetypes="cccccccc"
       inkscape:path-effect="#path-effect1-57-7"
       inkscape:original-d="M 172,806.33342 H 902.6146 V 688.36566 L 1212.7583,904.30158 902.6146,1120.2377 V 1002.2698 H 172 Z"
       transform="matrix(-0.59691295,-0.34462785,0.34462785,-0.59691295,1425.15,1785.5737)" />
    <path
       style="fill:#0ea5e9;stroke-width:60.7189;fill-opacity:1"
       d="m 192,806.33342 h 690.6146 a 20,20 135 0 0 20,-20 v -77.96776 a 10.445224,10.445224 152.42368 0 1 16.41354,-8.57216 l 277.31666,193.08024 a 13.924901,13.924901 89.999988 0 1 0,22.85569 L 919.02814,1108.8098 a 10.445219,10.445219 27.576306 0 1 -16.41354,-8.5721 l 0,-77.9679 a 20,20 45 0 0 -20,-20 H 192 a 20,20 45 0 1 -20,-20 V 826.33342 a 20,20 135 0 1 20,-20 z"
       id="path2-7-2-4"
       sodipodi:nodetypes="cccccccc"
       inkscape:path-effect="#path-effect1-57-7-5"
       inkscape:original-d="M 172,806.33342 H 902.6146 V 688.36566 L 1212.7583,904.30158 902.6146,1120.2377 V 1002.2698 H 172 Z"
       transform="matrix(-0.59691295,-0.34462785,0.34462785,-0.59691295,1835.5773,1090.0571)" />
    <path
       style="fill:#d40000;stroke-width:60.7189"
       d="m 192,806.33342 h 690.6146 a 20,20 135 0 0 20,-20 v -77.96776 a 10.445224,10.445224 152.42368 0 1 16.41354,-8.57216 l 277.31666,193.08024 a 13.924901,13.924901 89.999988 0 1 0,22.85569 L 919.02814,1108.8098 a 10.445219,10.445219 27.576306 0 1 -16.41354,-8.5721 l 0,-77.9679 a 20,20 45 0 0 -20,-20 H 192 a 20,20 45 0 1 -20,-20 V 826.33342 a 20,20 135 0 1 20,-20 z"
       id="path2-7-2-3"
       sodipodi:nodetypes="cccccccc"
       inkscape:path-effect="#path-effect1-57-7-8"
       inkscape:original-d="M 172,806.33342 H 902.6146 V 688.36566 L 1212.7583,904.30158 902.6146,1120.2377 V 1002.2698 H 172 Z"
       transform="matrix(-0.87292573,-0.5039839,0.5039839,-0.87292573,2049.6569,1965.0382)" />
    <path
       style="fill:#d40000;stroke-width:60.7189"
       d="m 192,806.33342 h 690.6146 a 20,20 135 0 0 20,-20 v -77.96776 a 10.445224,10.445224 152.42368 0 1 16.41354,-8.57216 l 277.31666,193.08024 a 13.924901,13.924901 89.999988 0 1 0,22.85569 L 919.02814,1108.8098 a 10.445219,10.445219 27.576306 0 1 -16.41354,-8.5721 l 0,-77.9679 a 20,20 45 0 0 -20,-20 H 192 a 20,20 45 0 1 -20,-20 V 826.33342 a 20,20 135 0 1 20,-20 z"
       id="path2-7-2-3-0"
       sodipodi:nodetypes="cccccccc"
       inkscape:path-effect="#path-effect1-57-7-8-0"
       inkscape:original-d="M 172,806.33342 H 902.6146 V 688.36566 L 1212.7583,904.30158 902.6146,1120.2377 V 1002.2698 H 172 Z"
       transform="matrix(0.87292573,0.5039839,-0.5039839,0.87292573,209.84734,-680.17661)" />
  </g>
</svg>
