<?xml version="1.0" encoding="UTF-8" standalone="no"?>
<!-- Created with Inkscape (http://www.inkscape.org/) -->

<svg
   width="512"
   height="512"
   viewBox="0 0 512 512"
   version="1.1"
   id="svg1"
   inkscape:version="1.3.2 (091e20e, 2023-11-25, custom)"
   sodipodi:docname="Logo Title 2.svg"
   xmlns:inkscape="http://www.inkscape.org/namespaces/inkscape"
   xmlns:sodipodi="http://sodipodi.sourceforge.net/DTD/sodipodi-0.dtd"
   xmlns="http://www.w3.org/2000/svg"
   xmlns:svg="http://www.w3.org/2000/svg">
  <sodipodi:namedview
     id="namedview1"
     pagecolor="#ffffff"
     bordercolor="#000000"
     borderopacity="0.25"
     inkscape:showpageshadow="2"
     inkscape:pageopacity="0.0"
     inkscape:pagecheckerboard="0"
     inkscape:deskcolor="#d1d1d1"
     inkscape:document-units="px"
     inkscape:zoom="0.57421875"
     inkscape:cx="-417.08843"
     inkscape:cy="731.42857"
     inkscape:window-width="2560"
     inkscape:window-height="1476"
     inkscape:window-x="-12"
     inkscape:window-y="-12"
     inkscape:window-maximized="1"
     inkscape:current-layer="layer1" />
  <defs
     id="defs1" />
  <g
     inkscape:label="Layer 1"
     inkscape:groupmode="layer"
     id="layer1">
    <g
       id="g1"
       transform="translate(0,21.60817)">
      <text
         xml:space="preserve"
         style="font-style:normal;font-variant:normal;font-weight:normal;font-stretch:normal;font-size:81.3504px;font-family:Haettenschweiler;-inkscape-font-specification:Haettenschweiler;display:inline;fill:#dc2626;fill-opacity:1;stroke-width:9.48219"
         x="67.795876"
         y="376.28394"
         id="text1"
         inkscape:label="Movers Title"><tspan
           sodipodi:role="line"
           id="tspan1"
           style="font-style:normal;font-variant:normal;font-weight:normal;font-stretch:normal;font-size:81.3504px;font-family:Heavitas;-inkscape-font-specification:Heavitas;fill:#dc2626;fill-opacity:1;stroke-width:9.48219"
           x="67.795876"
           y="376.28394">MOVERS</tspan></text>
      <g
         id="g41"
         transform="matrix(2.1979093,0,0,2.1979093,-131.50356,-590.54971)">
        <path
           d="m 198.68363,365.22368 c 0.42334,-0.70556 0.63501,-1.41112 0.63501,-2.11668 v -14.07592 c 0,-0.70556 -0.21167,-1.37585 -0.63501,-2.01085 -0.49388,-0.70556 -1.05833,-1.23473 -1.69334,-1.58751 l -72.49628,-32.27937 c -0.56445,-0.28222 -1.1289,-0.24694 -1.69334,0.10584 -0.63501,0.35278 -0.95251,0.91722 -0.95251,1.69334 v 17.56844 c 0,0.70556 0.24694,1.41112 0.74084,2.11668 0.42333,0.635 0.9525,1.1289 1.58751,1.48168 l 42.54526,18.52095 c 0.635,0.35278 0.9525,0.81139 0.9525,1.37584 0,0.56444 -0.3175,1.02306 -0.9525,1.37584 l -42.54526,18.62679 c -0.63501,0.35278 -1.16418,0.88195 -1.58751,1.58751 -0.4939,0.635 -0.74084,1.30528 -0.74084,2.01084 v 17.25095 c 0,0.91722 0.3175,1.51694 0.95251,1.79916 0.635,0.35278 1.34056,0.35278 2.11668,0 l 72.07294,-31.96185 c 0.63501,-0.35278 1.19946,-0.84668 1.69334,-1.48168 z"
           style="font-size:105.834px;font-family:Heavitas;-inkscape-font-specification:Heavitas;fill:#1d4ed8;fill-opacity:1;stroke-width:12.336"
           id="path1-3"
           sodipodi:nodetypes="cssccccsscccscccsscccc" />
        <path
           d="m 230.08838,365.80069 c 0.44968,-0.74945 0.67452,-1.4989 0.67452,-2.24836 v -14.95159 c 0,-0.74945 -0.22484,-1.46144 -0.67452,-2.13594 -0.52461,-0.74946 -1.12417,-1.31155 -1.79869,-1.68627 l -77.00632,-34.2875 c -0.59956,-0.29977 -1.19913,-0.2623 -1.79869,0.11243 -0.6745,0.37472 -1.01176,0.97428 -1.01176,1.79868 v 18.66139 c 0,0.74945 0.2623,1.4989 0.78693,2.24836 0.44966,0.6745 1.01176,1.19912 1.68627,1.57385 l 45.19202,19.67315 c 0.67452,0.37474 1.01177,0.86187 1.01177,1.46143 0,0.59956 -0.33725,1.08671 -1.01177,1.46144 l -45.19202,19.78556 c -0.67451,0.37475 -1.23661,0.93683 -1.68627,1.68628 -0.52463,0.67451 -0.78693,1.38649 -0.78693,2.13594 v 18.32414 c 0,0.97428 0.33726,1.61131 1.01176,1.91109 0.67451,0.37473 1.42396,0.37473 2.24837,0 l 76.55664,-33.95022 c 0.67452,-0.37473 1.27408,-0.89935 1.79869,-1.57386 z"
           style="font-size:105.834px;font-family:Heavitas;-inkscape-font-specification:Heavitas;fill:#0ea5e9;fill-opacity:1;stroke-width:13.1035"
           id="path1-3-8"
           sodipodi:nodetypes="cssccccsscccscccsscccc" />
      </g>
    </g>
  </g>
</svg>
