<svg xmlns="http://www.w3.org/2000/svg" xmlns:xlink="http://www.w3.org/1999/xlink" contentStyleType="text/css" data-diagram-type="DESCRIPTION" height="1928px" preserveAspectRatio="none" style="width:1197px;height:1928px;background:#FFFFFF;" version="1.1" viewBox="0 0 1197 1928" width="1197px" zoomAndPan="magnify"><defs/><g><!--cluster Cleaning Microsystem--><g id="cluster_Cleaning Microsystem"><rect fill="transparent" height="1915" rx="2.5" ry="2.5" style="stroke:#181818;stroke-width:1;" width="320" x="871" y="7"/><text fill="#000000" font-family="sans-serif" font-size="14" font-weight="bold" lengthAdjust="spacing" textLength="173.7627" x="944.1187" y="21.9951">Cleaning Microsystem</text></g><!--cluster Settings--><g id="cluster_Settings"><rect fill="transparent" height="409" rx="2.5" ry="2.5" style="stroke:#181818;stroke-width:1;" width="244" x="909" y="1015"/><text fill="#000000" font-family="sans-serif" font-size="14" font-weight="bold" lengthAdjust="spacing" textLength="66.083" x="997.9585" y="1029.9951">Settings</text></g><!--cluster Stock Management--><g id="cluster_Stock Management"><rect fill="transparent" height="303" rx="2.5" ry="2.5" style="stroke:#181818;stroke-width:1;" width="272" x="895" y="50"/><text fill="#000000" font-family="sans-serif" font-size="14" font-weight="bold" lengthAdjust="spacing" textLength="151.9287" x="955.0356" y="64.9951">Stock Management</text></g><!--cluster Order Management--><g id="cluster_Order Management"><rect fill="transparent" height="239" rx="2.5" ry="2.5" style="stroke:#181818;stroke-width:1;" width="232" x="915" y="377"/><text fill="#000000" font-family="sans-serif" font-size="14" font-weight="bold" lengthAdjust="spacing" textLength="153.1523" x="954.4238" y="391.9951">Order Management</text></g><!--cluster Administration--><g id="cluster_Administration"><rect fill="transparent" height="450" rx="2.5" ry="2.5" style="stroke:#181818;stroke-width:1;" width="230" x="916" y="1448"/><text fill="#000000" font-family="sans-serif" font-size="14" font-weight="bold" lengthAdjust="spacing" textLength="117.4619" x="972.269" y="1462.9951">Administration</text></g><!--cluster Cleaning--><g id="cluster_Cleaning"><rect fill="transparent" height="310" rx="2.5" ry="2.5" style="stroke:#181818;stroke-width:1;" width="209" x="926.5" y="640"/><text fill="#000000" font-family="sans-serif" font-size="14" font-weight="bold" lengthAdjust="spacing" textLength="68.7695" x="996.6152" y="654.9951">Cleaning</text></g><!--cluster Customer Interactions--><g id="cluster_Customer Interactions"><rect fill="transparent" height="162" rx="2.5" ry="2.5" style="stroke:#181818;stroke-width:1;" width="505" x="7" y="657"/><text fill="#000000" font-family="sans-serif" font-size="14" font-weight="bold" lengthAdjust="spacing" textLength="176.1689" x="171.4155" y="671.9951">Customer Interactions</text></g><g id="elem_Sign In"><ellipse cx="1030.8749" cy="984.1477" fill="#F1F1F1" rx="45.8749" ry="14.6477" style="stroke:#181818;stroke-width:0.5;"/><text fill="#000000" font-family="sans-serif" font-size="14" lengthAdjust="spacing" textLength="47.9883" x="1003.8807" y="987.8953">Sign In</text></g><g id="elem_Edit Personal Information"><ellipse cx="1031.0512" cy="1145.1102" fill="#F1F1F1" rx="106.0512" ry="23.6102" style="stroke:#181818;stroke-width:0.5;"/><text fill="#000000" font-family="sans-serif" font-size="14" lengthAdjust="spacing" textLength="177.3105" x="942.3959" y="1147.9569">Edit Personal Information</text></g><g id="elem_Edit Contact Information"><ellipse cx="1031.011" cy="1227.1022" fill="#F1F1F1" rx="103.511" ry="23.1022" style="stroke:#181818;stroke-width:0.5;"/><text fill="#000000" font-family="sans-serif" font-size="14" lengthAdjust="spacing" textLength="171.7666" x="945.1277" y="1229.9489">Edit Contact Information</text></g><g id="elem_Edit Emergency Contact"><ellipse cx="1031.062" cy="1307.9124" fill="#F1F1F1" rx="102.562" ry="22.9124" style="stroke:#181818;stroke-width:0.5;"/><text fill="#000000" font-family="sans-serif" font-size="14" lengthAdjust="spacing" textLength="169.6885" x="946.2178" y="1310.7591">Edit Emergency Contact</text></g><g id="elem_Edit Security Settings"><ellipse cx="1031.0822" cy="1387.2164" fill="#F1F1F1" rx="94.0822" ry="21.2164" style="stroke:#181818;stroke-width:0.5;"/><text fill="#000000" font-family="sans-serif" font-size="14" lengthAdjust="spacing" textLength="150.9238" x="955.6203" y="1390.0631">Edit Security Settings</text></g><g id="elem_Edit Appearance"><ellipse cx="1030.8119" cy="1068.1624" fill="#F1F1F1" rx="78.8119" ry="18.1624" style="stroke:#181818;stroke-width:0.5;"/><text fill="#000000" font-family="sans-serif" font-size="14" lengthAdjust="spacing" textLength="115.623" x="970.8746" y="1071.6749">Edit Appearance</text></g><g id="elem_Add Stock"><ellipse cx="1030.7631" cy="99.8526" fill="#F1F1F1" rx="62.2631" ry="14.8526" style="stroke:#181818;stroke-width:0.5;"/><text fill="#000000" font-family="sans-serif" font-size="14" lengthAdjust="spacing" textLength="70.5469" x="992.4896" y="103.6002">Add Stock</text></g><g id="elem_Edit Stock"><ellipse cx="1031.1859" cy="164.8372" fill="#F1F1F1" rx="62.1859" ry="14.8372" style="stroke:#181818;stroke-width:0.5;"/><text fill="#000000" font-family="sans-serif" font-size="14" lengthAdjust="spacing" textLength="70.3076" x="993.0321" y="168.5847">Edit Stock</text></g><g id="elem_Archive Stock"><ellipse cx="1031.1361" cy="232.1272" fill="#F1F1F1" rx="71.1361" ry="16.6272" style="stroke:#181818;stroke-width:0.5;"/><text fill="#000000" font-family="sans-serif" font-size="14" lengthAdjust="spacing" textLength="95.8877" x="980.1923" y="235.8748">Archive Stock</text></g><g id="elem_View Stock Quantity Changes"><ellipse cx="1030.8431" cy="309.8686" fill="#F1F1F1" rx="119.8431" ry="26.3686" style="stroke:#181818;stroke-width:0.5;"/><text fill="#000000" font-family="sans-serif" font-size="14" lengthAdjust="spacing" textLength="207.0195" x="927.3334" y="312.7153">View Stock Quantity Changes</text></g><g id="elem_Request Stock"><ellipse cx="1030.9509" cy="501.9902" fill="#F1F1F1" rx="72.9509" ry="16.9902" style="stroke:#181818;stroke-width:0.5;"/><text fill="#000000" font-family="sans-serif" font-size="14" lengthAdjust="spacing" textLength="100.6934" x="977.6042" y="505.7377">Request Stock</text></g><g id="elem_Approve Stock Request"><ellipse cx="1030.844" cy="576.8688" fill="#F1F1F1" rx="99.844" ry="22.3688" style="stroke:#181818;stroke-width:0.5;"/><text fill="#000000" font-family="sans-serif" font-size="14" lengthAdjust="spacing" textLength="163.7139" x="948.9871" y="579.7155">Approve Stock Request</text></g><g id="elem_Receive Delivery"><ellipse cx="1030.7847" cy="430.8569" fill="#F1F1F1" rx="79.7847" ry="18.3569" style="stroke:#181818;stroke-width:0.5;"/><text fill="#000000" font-family="sans-serif" font-size="14" lengthAdjust="spacing" textLength="118.002" x="970.0357" y="434.2614">Receive Delivery</text></g><g id="elem_Add Staff"><ellipse cx="1030.7844" cy="1497.7599" fill="#F1F1F1" rx="58.2844" ry="14.7599" style="stroke:#181818;stroke-width:0.5;"/><text fill="#000000" font-family="sans-serif" font-size="14" lengthAdjust="spacing" textLength="64.6133" x="995.4777" y="1501.5074">Add Staff</text></g><g id="elem_Edit Staff"><ellipse cx="1031.1057" cy="1562.7586" fill="#F1F1F1" rx="58.1057" ry="14.7586" style="stroke:#181818;stroke-width:0.5;"/><text fill="#000000" font-family="sans-serif" font-size="14" lengthAdjust="spacing" textLength="64.374" x="995.9187" y="1566.5062">Edit Staff</text></g><g id="elem_Archive Staff"><ellipse cx="1030.9473" cy="1629.1895" fill="#F1F1F1" rx="68.9473" ry="16.1895" style="stroke:#181818;stroke-width:0.5;"/><text fill="#000000" font-family="sans-serif" font-size="14" lengthAdjust="spacing" textLength="89.9541" x="982.9703" y="1632.937">Archive Staff</text></g><g id="elem_Change Staff Settings"><ellipse cx="1030.8932" cy="1701.8786" fill="#F1F1F1" rx="94.8932" ry="21.3786" style="stroke:#181818;stroke-width:0.5;"/><text fill="#000000" font-family="sans-serif" font-size="14" lengthAdjust="spacing" textLength="152.7354" x="954.5255" y="1704.7253">Change Staff Settings</text></g><g id="elem_Change Staff Password"><ellipse cx="1030.8776" cy="1781.1755" fill="#F1F1F1" rx="98.8776" ry="22.1755" style="stroke:#181818;stroke-width:0.5;"/><text fill="#000000" font-family="sans-serif" font-size="14" lengthAdjust="spacing" textLength="161.5811" x="950.0871" y="1784.0222">Change Staff Password</text></g><g id="elem_View Sign in Attempts"><ellipse cx="1030.7551" cy="1860.051" fill="#F1F1F1" rx="95.7551" ry="21.551" style="stroke:#181818;stroke-width:0.5;"/><text fill="#000000" font-family="sans-serif" font-size="14" lengthAdjust="spacing" textLength="154.6563" x="953.4269" y="1862.8977">View Sign in Attempts</text></g><g id="elem_Book Cleaning Job"><ellipse cx="1030.9388" cy="694.0878" fill="#F1F1F1" rx="83.4388" ry="19.0878" style="stroke:#181818;stroke-width:0.5;"/><text fill="#000000" font-family="sans-serif" font-size="14" lengthAdjust="spacing" textLength="126.7041" x="967.1413" y="697.0861">Book Cleaning Job</text></g><g id="elem_Delete Cleaning Job"><ellipse cx="1030.7904" cy="768.0581" fill="#F1F1F1" rx="88.2904" ry="20.0581" style="stroke:#181818;stroke-width:0.5;"/><text fill="#000000" font-family="sans-serif" font-size="14" lengthAdjust="spacing" textLength="137.8604" x="961.8603" y="770.9048">Delete Cleaning Job</text></g><g id="elem_Edit Cleaning Job"><ellipse cx="1031.185" cy="841.937" fill="#F1F1F1" rx="80.185" ry="18.437" style="stroke:#181818;stroke-width:0.5;"/><text fill="#000000" font-family="sans-serif" font-size="14" lengthAdjust="spacing" textLength="118.9727" x="970.102" y="845.2969">Edit Cleaning Job</text></g><g id="elem_View Cleaning Job"><ellipse cx="1030.8786" cy="914.9757" fill="#F1F1F1" rx="82.8786" ry="18.9757" style="stroke:#181818;stroke-width:0.5;"/><text fill="#000000" font-family="sans-serif" font-size="14" lengthAdjust="spacing" textLength="125.3916" x="967.5484" y="918.0363">View Cleaning Job</text></g><g id="elem_Contact Office Staff"><ellipse cx="408.0263" cy="768.0053" fill="#F1F1F1" rx="88.0263" ry="20.0053" style="stroke:#181818;stroke-width:0.5;"/><text fill="#000000" font-family="sans-serif" font-size="14" lengthAdjust="spacing" textLength="137.2588" x="339.3969" y="770.8519">Contact Office Staff</text></g><g id="elem_Contact via Phone"><ellipse cx="106.7759" cy="784.1552" fill="#F1F1F1" rx="83.7759" ry="19.1552" style="stroke:#181818;stroke-width:0.5;"/><text fill="#000000" font-family="sans-serif" font-size="14" lengthAdjust="spacing" textLength="127.4902" x="42.6972" y="787.1161">Contact via Phone</text></g><g id="elem_Contact via Email"><ellipse cx="106.851" cy="710.7702" fill="#F1F1F1" rx="81.851" ry="18.7702" style="stroke:#181818;stroke-width:0.5;"/><text fill="#000000" font-family="sans-serif" font-size="14" lengthAdjust="spacing" textLength="122.9648" x="44.3781" y="713.945">Contact via Email</text></g><!--entity Staff--><g id="elem_Staff"><ellipse cx="785.5259" cy="1121.2969" fill="#F1F1F1" rx="8" ry="8" style="stroke:#181818;stroke-width:0.5;"/><path d="M785.5259,1129.2969 L785.5259,1156.2969 M772.5259,1137.2969 L798.5259,1137.2969 M785.5259,1156.2969 L772.5259,1171.2969 M785.5259,1156.2969 L798.5259,1171.2969 " fill="transparent" style="stroke:#181818;stroke-width:0.5;"/><text fill="#000000" font-family="sans-serif" font-size="14" lengthAdjust="spacing" textLength="32.8125" x="769.1196" y="1185.792">Staff</text><text fill="#000000" font-family="sans-serif" font-size="14" font-style="italic" lengthAdjust="spacing" textLength="75.0518" x="748" y="1109.4951">&#171;abstract&#187;</text></g><!--entity Manager--><g id="elem_Manager"><ellipse cx="408.1831" cy="487.5" fill="#F1F1F1" rx="8" ry="8" style="stroke:#181818;stroke-width:0.5;"/><path d="M408.1831,495.5 L408.1831,522.5 M395.1831,503.5 L421.1831,503.5 M408.1831,522.5 L395.1831,537.5 M408.1831,522.5 L421.1831,537.5 " fill="transparent" style="stroke:#181818;stroke-width:0.5;"/><text fill="#000000" font-family="sans-serif" font-size="14" lengthAdjust="spacing" textLength="61.3662" x="377.5" y="551.9951">Manager</text></g><!--entity Cleaning Manager--><g id="elem_Cleaning Manager"><ellipse cx="622.5981" cy="336.5" fill="#F1F1F1" rx="8" ry="8" style="stroke:#181818;stroke-width:0.5;"/><path d="M622.5981,344.5 L622.5981,371.5 M609.5981,352.5 L635.5981,352.5 M622.5981,371.5 L609.5981,386.5 M622.5981,371.5 L635.5981,386.5 " fill="transparent" style="stroke:#181818;stroke-width:0.5;"/><text fill="#000000" font-family="sans-serif" font-size="14" lengthAdjust="spacing" textLength="127.1963" x="559" y="400.9951">Cleaning Manager</text></g><!--entity Office Staff--><g id="elem_Office Staff"><ellipse cx="622.6699" cy="738.5" fill="#F1F1F1" rx="8" ry="8" style="stroke:#181818;stroke-width:0.5;"/><path d="M622.6699,746.5 L622.6699,773.5 M609.6699,754.5 L635.6699,754.5 M622.6699,773.5 L609.6699,788.5 M622.6699,773.5 L635.6699,788.5 " fill="transparent" style="stroke:#181818;stroke-width:0.5;"/><text fill="#000000" font-family="sans-serif" font-size="14" lengthAdjust="spacing" textLength="78.3398" x="583.5" y="802.9951">Office Staff</text></g><!--entity Administrator--><g id="elem_Administrator"><ellipse cx="622.3413" cy="1604.5" fill="#F1F1F1" rx="8" ry="8" style="stroke:#181818;stroke-width:0.5;"/><path d="M622.3413,1612.5 L622.3413,1639.5 M609.3413,1620.5 L635.3413,1620.5 M622.3413,1639.5 L609.3413,1654.5 M622.3413,1639.5 L635.3413,1654.5 " fill="transparent" style="stroke:#181818;stroke-width:0.5;"/><text fill="#000000" font-family="sans-serif" font-size="14" lengthAdjust="spacing" textLength="95.6826" x="574.5" y="1668.9951">Administrator</text></g><!--entity Cleaning Staff--><g id="elem_Cleaning Staff"><ellipse cx="622.3213" cy="1035.5" fill="#F1F1F1" rx="8" ry="8" style="stroke:#181818;stroke-width:0.5;"/><path d="M622.3213,1043.5 L622.3213,1070.5 M609.3213,1051.5 L635.3213,1051.5 M622.3213,1070.5 L609.3213,1085.5 M622.3213,1070.5 L635.3213,1085.5 " fill="transparent" style="stroke:#181818;stroke-width:0.5;"/><text fill="#000000" font-family="sans-serif" font-size="14" lengthAdjust="spacing" textLength="98.6426" x="573" y="1099.9951">Cleaning Staff</text></g><!--entity Customer--><g id="elem_Customer"><ellipse cx="107.002" cy="846.5" fill="#F1F1F1" rx="8" ry="8" style="stroke:#181818;stroke-width:0.5;"/><path d="M107.002,854.5 L107.002,881.5 M94.002,862.5 L120.002,862.5 M107.002,881.5 L94.002,896.5 M107.002,881.5 L120.002,896.5 " fill="transparent" style="stroke:#181818;stroke-width:0.5;"/><text fill="#000000" font-family="sans-serif" font-size="14" lengthAdjust="spacing" textLength="68.0039" x="73" y="910.9951">Customer</text></g><!--link Manager to Cleaning Manager--><g id="link_Manager_Cleaning Manager"><path d="M438.55,496 C471.85,472.34 511.9967,443.8057 552.9667,414.6957 " fill="transparent" id="Manager-to-Cleaning Manager" style="stroke:#181818;stroke-width:1;"/><polygon fill="transparent" points="567.64,404.27,549.4915,409.8046,556.4419,419.5868,567.64,404.27" style="stroke:#181818;stroke-width:1;"/></g><!--link Manager to Office Staff--><g id="link_Manager_Office Staff"><path d="M438.55,551.9 C478.12,598.64 536.4601,667.5515 577.4401,715.9615 " fill="transparent" id="Manager-to-Office Staff" style="stroke:#181818;stroke-width:1;"/><polygon fill="transparent" points="589.07,729.7,582.0196,712.0849,572.8606,719.8382,589.07,729.7" style="stroke:#181818;stroke-width:1;"/></g><!--link Cleaning Manager to Staff--><g id="link_Cleaning Manager_Staff"><path d="M631.37,404 C658.14,533.19 741.9376,937.5844 771.2076,1078.8344 " fill="transparent" id="Cleaning Manager-to-Staff" style="stroke:#181818;stroke-width:1;"/><polygon fill="transparent" points="774.86,1096.46,777.0828,1077.617,765.3324,1080.0519,774.86,1096.46" style="stroke:#181818;stroke-width:1;"/></g><!--link Office Staff to Staff--><g id="link_Office Staff_Staff"><path d="M630.72,806.26 C642.65,863.88 669.86,975.22 716,1060 C724.31,1075.26 724.011,1076.6339 735.041,1089.7039 " fill="transparent" id="Office Staff-to-Staff" style="stroke:#181818;stroke-width:1;"/><polygon fill="transparent" points="746.65,1103.46,739.6263,1085.8342,730.4556,1093.5736,746.65,1103.46" style="stroke:#181818;stroke-width:1;"/></g><!--link Administrator to Staff--><g id="link_Administrator_Staff"><path d="M636,1595.88 C665.15,1506.99 731.9324,1303.3242 763.6224,1206.6642 " fill="transparent" id="Administrator-to-Staff" style="stroke:#181818;stroke-width:1;"/><polygon fill="transparent" points="769.23,1189.56,757.921,1204.795,769.3238,1208.5334,769.23,1189.56" style="stroke:#181818;stroke-width:1;"/></g><!--link Cleaning Staff to Staff--><g id="link_Cleaning Staff_Staff"><path d="M672.24,1088.61 C696.21,1100.23 708.4597,1106.1646 730.7197,1116.9446 " fill="transparent" id="Cleaning Staff-to-Staff" style="stroke:#181818;stroke-width:1;"/><polygon fill="transparent" points="746.92,1124.79,733.3349,1111.5445,728.1046,1122.3447,746.92,1124.79" style="stroke:#181818;stroke-width:1;"/></g><!--link Staff to Sign In--><g id="link_Staff_Sign In"><path d="M809.77,1096.31 C822.74,1074.57 840.78,1050.03 863,1034 C900.06,1007.27 945.5873,995.6302 981.5473,989.8002 " fill="transparent" id="Staff-to-Sign In" style="stroke:#181818;stroke-width:1;"/><polygon fill="#181818" points="987.47,988.84,977.9459,986.3319,982.5344,989.6402,979.2261,994.2288,987.47,988.84" style="stroke:#181818;stroke-width:1;"/></g><!--link Staff to Edit Personal Information--><g id="link_Staff_Edit Personal Information"><path d="M824.01,1143.31 C851.09,1143.53 883.0802,1143.79 919.0702,1144.09 " fill="transparent" id="Staff-to-Edit Personal Information" style="stroke:#181818;stroke-width:1;"/><polygon fill="#181818" points="925.07,1144.14,916.1037,1140.0651,920.0702,1144.0983,916.037,1148.0648,925.07,1144.14" style="stroke:#181818;stroke-width:1;"/></g><!--link Staff to Edit Contact Information--><g id="link_Staff_Edit Contact Information"><path d="M824.02,1166.76 C836.12,1173.69 849.82,1180.79 863,1186 C891.04,1197.08 917.1016,1204.4596 945.4616,1210.9596 " fill="transparent" id="Staff-to-Edit Contact Information" style="stroke:#181818;stroke-width:1;"/><polygon fill="#181818" points="951.31,1212.3,943.4311,1206.3905,946.4364,1211.183,941.6439,1214.1883,951.31,1212.3" style="stroke:#181818;stroke-width:1;"/></g><!--link Staff to Edit Emergency Contact--><g id="link_Staff_Edit Emergency Contact"><path d="M804.68,1189.79 C817.25,1216.21 836.52,1247.72 863,1267 C884.6,1282.73 905.6663,1291.1096 931.5263,1297.1296 " fill="transparent" id="Staff-to-Edit Emergency Contact" style="stroke:#181818;stroke-width:1;"/><polygon fill="#181818" points="937.37,1298.49,929.5113,1292.5536,932.5002,1297.3564,927.6975,1300.3453,937.37,1298.49" style="stroke:#181818;stroke-width:1;"/></g><!--link Staff to Edit Security Settings--><g id="link_Staff_Edit Security Settings"><path d="M791.25,1189.61 C798.55,1236.5 816.94,1307.48 863,1348 C884.01,1366.49 906.2282,1375.465 933.3782,1380.935 " fill="transparent" id="Staff-to-Edit Security Settings" style="stroke:#181818;stroke-width:1;"/><polygon fill="#181818" points="939.26,1382.12,931.2273,1376.4213,934.3585,1381.1325,929.6473,1384.2637,939.26,1382.12" style="stroke:#181818;stroke-width:1;"/></g><!--link Staff to Edit Appearance--><g id="link_Staff_Edit Appearance"><path d="M824.16,1121.35 C836.27,1115.07 849.94,1108.65 863,1104 C895.83,1092.32 927.8107,1084.8645 959.1807,1079.0445 " fill="transparent" id="Staff-to-Edit Appearance" style="stroke:#181818;stroke-width:1;"/><polygon fill="#181818" points="965.08,1077.95,955.5013,1075.6588,960.1639,1078.8621,956.9607,1083.5246,965.08,1077.95" style="stroke:#181818;stroke-width:1;"/></g><!--link Cleaning Manager to Add Stock--><g id="link_Cleaning Manager_Add Stock"><path d="M648.51,327.67 C686.99,272.56 766.45,173.09 863,132 C897.5,117.32 932.9212,110.1122 965.8512,105.7822 " fill="transparent" id="Cleaning Manager-to-Add Stock" style="stroke:#181818;stroke-width:1;"/><polygon fill="#181818" points="971.8,105,962.3553,102.2075,966.8427,105.6518,963.3983,110.1392,971.8,105" style="stroke:#181818;stroke-width:1;"/></g><!--link Cleaning Manager to Edit Stock--><g id="link_Cleaning Manager_Edit Stock"><path d="M664.37,327.78 C709.34,288.17 785.55,227.95 863,198 C898.7,184.2 935.0723,176.7726 968.1823,171.9626 " fill="transparent" id="Cleaning Manager-to-Edit Stock" style="stroke:#181818;stroke-width:1;"/><polygon fill="#181818" points="974.12,171.1,964.6384,168.4354,969.1719,171.8188,965.7885,176.3523,974.12,171.1" style="stroke:#181818;stroke-width:1;"/></g><!--link Cleaning Manager to Archive Stock--><g id="link_Cleaning Manager_Archive Stock"><path d="M686.3,335.81 C733.9,313.91 801.41,284.93 863,266 C898.35,255.13 933.0914,247.8132 965.4314,242.1032 " fill="transparent" id="Cleaning Manager-to-Archive Stock" style="stroke:#181818;stroke-width:1;"/><polygon fill="#181818" points="971.34,241.06,961.7816,238.6858,966.4162,241.9294,963.1726,246.5639,971.34,241.06" style="stroke:#181818;stroke-width:1;"/></g><!--link Cleaning Manager to View Stock Quantity Changes--><g id="link_Cleaning Manager_View Stock Quantity Changes"><path d="M686.12,357.37 C750.71,348.48 846.5061,335.2787 922.5961,324.7987 " fill="transparent" id="Cleaning Manager-to-View Stock Quantity Changes" style="stroke:#181818;stroke-width:1;"/><polygon fill="#181818" points="928.54,323.98,919.0784,321.2454,923.5868,324.6622,920.1699,329.1706,928.54,323.98" style="stroke:#181818;stroke-width:1;"/></g><!--link Cleaning Manager to Request Stock--><g id="link_Cleaning Manager_Request Stock"><path d="M686.29,396.41 C733.89,418.5 801.41,447.76 863,467 C898.06,477.95 932.4385,485.4272 964.6485,491.3372 " fill="transparent" id="Cleaning Manager-to-Request Stock" style="stroke:#181818;stroke-width:1;"/><polygon fill="#181818" points="970.55,492.42,962.4197,486.8614,965.6321,491.5176,960.9759,494.7301,970.55,492.42" style="stroke:#181818;stroke-width:1;"/></g><!--link Cleaning Manager to Receive Delivery--><g id="link_Cleaning Manager_Receive Delivery"><path d="M686.12,376.01 C761.62,388.09 881.9752,407.3331 958.6852,419.5931 " fill="transparent" id="Cleaning Manager-to-Receive Delivery" style="stroke:#181818;stroke-width:1;"/><polygon fill="#181818" points="964.61,420.54,956.3541,415.1698,959.6727,419.7509,955.0915,423.0695,964.61,420.54" style="stroke:#181818;stroke-width:1;"/></g><!--link Office Staff to Approve Stock Request--><g id="link_Office Staff_Approve Stock Request"><path d="M661.76,745.41 C678.26,735.95 697.88,725.08 716,716 C808.34,669.74 913.966,624.7244 976.186,598.9744 " fill="transparent" id="Office Staff-to-Approve Stock Request" style="stroke:#181818;stroke-width:1;"/><polygon fill="#181818" points="981.73,596.68,971.8844,596.4256,977.11,598.592,974.9436,603.8176,981.73,596.68" style="stroke:#181818;stroke-width:1;"/></g><!--link Administrator to Add Staff--><g id="link_Administrator_Add Staff"><path d="M670.77,1605.09 C685.07,1596.85 700.96,1588.17 716,1581 C803.93,1539.09 910.2515,1516.9258 973.9515,1506.3158 " fill="transparent" id="Administrator-to-Add Staff" style="stroke:#181818;stroke-width:1;"/><polygon fill="#181818" points="979.87,1505.33,970.3351,1502.863,974.9379,1506.1515,971.6495,1510.7543,979.87,1505.33" style="stroke:#181818;stroke-width:1;"/></g><!--link Administrator to Edit Staff--><g id="link_Administrator_Edit Staff"><path d="M670.7,1618.79 C685.13,1614.53 701.12,1610.2 716,1607 C806.42,1587.58 907.4224,1575.3228 970.2824,1568.7628 " fill="transparent" id="Administrator-to-Edit Staff" style="stroke:#181818;stroke-width:1;"/><polygon fill="#181818" points="976.25,1568.14,966.8834,1565.0958,971.277,1568.659,967.7138,1573.0526,976.25,1568.14" style="stroke:#181818;stroke-width:1;"/></g><!--link Administrator to Archive Staff--><g id="link_Administrator_Archive Staff"><path d="M670.53,1633.42 C742.21,1632.54 873.1805,1630.9341 955.7905,1629.9141 " fill="transparent" id="Administrator-to-Archive Staff" style="stroke:#181818;stroke-width:1;"/><polygon fill="#181818" points="961.79,1629.84,952.7413,1625.9514,956.7904,1629.9017,952.8401,1633.9508,961.79,1629.84" style="stroke:#181818;stroke-width:1;"/></g><!--link Administrator to Change Staff Settings--><g id="link_Administrator_Change Staff Settings"><path d="M670.53,1641.87 C740.02,1653.49 864.9423,1674.3898 948.1323,1688.3098 " fill="transparent" id="Administrator-to-Change Staff Settings" style="stroke:#181818;stroke-width:1;"/><polygon fill="#181818" points="954.05,1689.3,945.8335,1683.8695,949.1186,1688.4748,944.5133,1691.7599,954.05,1689.3" style="stroke:#181818;stroke-width:1;"/></g><!--link Administrator to Change Staff Password--><g id="link_Administrator_Change Staff Password"><path d="M670.62,1658.19 C718.18,1681.84 794.23,1717.63 863,1741 C893.06,1751.22 921.1556,1758.5462 950.5656,1765.1462 " fill="transparent" id="Administrator-to-Change Staff Password" style="stroke:#181818;stroke-width:1;"/><polygon fill="#181818" points="956.42,1766.46,948.5143,1760.5864,951.5413,1765.3652,946.7625,1768.3922,956.42,1766.46" style="stroke:#181818;stroke-width:1;"/></g><!--link Administrator to View Sign in Attempts--><g id="link_Administrator_View Sign in Attempts"><path d="M660.89,1672.03 C705.14,1714.75 782.98,1782.94 863,1820 C890.59,1832.78 916.8428,1840.4746 945.4928,1846.6046 " fill="transparent" id="Administrator-to-View Sign in Attempts" style="stroke:#181818;stroke-width:1;"/><polygon fill="#181818" points="951.36,1847.86,943.3961,1842.0655,946.4707,1846.8139,941.7223,1849.8884,951.36,1847.86" style="stroke:#181818;stroke-width:1;"/></g><!--link Cleaning Staff to View Cleaning Job--><g id="link_Cleaning Staff_View Cleaning Job"><path d="M672.15,1032.61 C719.01,1003.05 792.91,960.62 863,938 C890.99,928.97 916.7813,924.1824 945.0313,920.8524 " fill="transparent" id="Cleaning Staff-to-View Cleaning Job" style="stroke:#181818;stroke-width:1;"/><polygon fill="#181818" points="950.99,920.15,941.5836,917.2311,946.0244,920.7353,942.5201,925.1761,950.99,920.15" style="stroke:#181818;stroke-width:1;"/></g><!--link Office Staff to Book Cleaning Job--><g id="link_Office Staff_Book Cleaning Job"><path d="M661.94,756.06 C678.46,751.22 698.06,745.88 716,742 C797.66,724.35 886.6881,711.5378 950.6181,703.3978 " fill="transparent" id="Office Staff-to-Book Cleaning Job" style="stroke:#181818;stroke-width:1;"/><polygon fill="#181818" points="956.57,702.64,947.1369,699.8088,951.61,703.2715,948.1473,707.7447,956.57,702.64" style="stroke:#181818;stroke-width:1;"/></g><!--link Office Staff to Delete Cleaning Job--><g id="link_Office Staff_Delete Cleaning Job"><path d="M661.74,768 C725.48,768 849.03,768 936.2,768 " fill="transparent" id="Office Staff-to-Delete Cleaning Job" style="stroke:#181818;stroke-width:1;"/><polygon fill="#181818" points="942.2,768,933.2,764,937.2,768,933.2,772,942.2,768" style="stroke:#181818;stroke-width:1;"/></g><!--link Office Staff to Edit Cleaning Job--><g id="link_Office Staff_Edit Cleaning Job"><path d="M661.74,774.96 C732,787.75 876.327,814.0257 961.607,829.5457 " fill="transparent" id="Office Staff-to-Edit Cleaning Job" style="stroke:#181818;stroke-width:1;"/><polygon fill="#181818" points="967.51,830.62,959.3716,825.0732,962.5908,829.7248,957.9392,832.9439,967.51,830.62" style="stroke:#181818;stroke-width:1;"/></g><!--link Office Staff to View Cleaning Job--><g id="link_Office Staff_View Cleaning Job"><path d="M661.87,788.72 C708.33,813.08 789.49,853.29 863,878 C895.65,888.98 927.1141,896.4357 958.2041,902.5857 " fill="transparent" id="Office Staff-to-View Cleaning Job" style="stroke:#181818;stroke-width:1;"/><polygon fill="#181818" points="964.09,903.75,956.0373,898.0796,959.185,902.7797,954.4849,905.9275,964.09,903.75" style="stroke:#181818;stroke-width:1;"/></g><!--link Customer to Contact Office Staff--><g id="link_Customer_Contact Office Staff"><path d="M141.14,864.03 C194.43,844.78 293.7067,808.918 354.5967,786.928 " fill="transparent" id="Customer-to-Contact Office Staff" style="stroke:#181818;stroke-width:1;"/><polygon fill="#181818" points="360.24,784.89,350.4164,784.1849,355.5373,786.5884,353.1338,791.7092,360.24,784.89" style="stroke:#181818;stroke-width:1;"/></g><!--link Contact Office Staff to Office Staff--><g id="link_Contact Office Staff_Office Staff"><path d="M496.05,768 C526.42,768 552.96,768 577.29,768 " fill="transparent" id="Contact Office Staff-to-Office Staff" style="stroke:#181818;stroke-width:1;"/><polygon fill="#181818" points="583.29,768,574.29,764,578.29,768,574.29,772,583.29,768" style="stroke:#181818;stroke-width:1;"/></g><!--link Contact via Phone to Contact Office Staff--><g id="link_Contact via Phone_Contact Office Staff"><path d="M188.91,779.67 C230.16,777.46 262.3258,775.7432 304.1258,773.5032 " fill="transparent" id="Contact via Phone-to-Contact Office Staff" style="stroke:#181818;stroke-width:1;stroke-dasharray:7.0,7.0;"/><polygon fill="transparent" points="322.1,772.54,303.8047,767.5118,304.4469,779.4946,322.1,772.54" style="stroke:#181818;stroke-width:1;"/><text fill="#000000" font-family="sans-serif" font-size="13" lengthAdjust="spacing" textLength="67.958" x="222" y="771.0669">&#171;extends&#187;</text></g><!--link Contact via Email to Contact Office Staff--><g id="link_Contact via Email_Contact Office Staff"><path d="M171.04,723.02 C220.65,732.47 271.9085,742.2488 322.4685,751.8888 " fill="transparent" id="Contact via Email-to-Contact Office Staff" style="stroke:#181818;stroke-width:1;stroke-dasharray:7.0,7.0;"/><polygon fill="transparent" points="340.15,755.26,323.5923,745.9949,321.3448,757.7826,340.15,755.26" style="stroke:#181818;stroke-width:1;"/><text fill="#000000" font-family="sans-serif" font-size="13" lengthAdjust="spacing" textLength="67.958" x="222" y="729.0669">&#171;extends&#187;</text></g><!--SRC=[bLTDRziu4BthLmnqwQNf3p020TuqXouG95kZUwUfaSMDH6f9AgdRvhztA4go99BExic0vyrmtfiFKWrM5gm2BKwrXL9ev5OecPbd8JkcMGiTuy_iX0TxRX2ScSbJWmj0mywgjr0hBNueQLcJPH_WCrP28h2ZiPfn2qoMO3haWZNY1vQWLOCcsnqigweTtDvEmAB8TWzCqe5wb-tk6cHIo1DS_dgiAi4Hl6EssvUjaCBvMhNoc01tlR6gTQwKrLSw5Mg1ccbUd-46IfUcWmjPenR4ZM8VqRuYoYd7wMoukVbLG2od3MAJOk0mmYRx2hwnhUbjZ1kkQoknVM12WZaRYtCLWRiAUSfSQOIgbqF1gInM4Di9br-o5bmh7oM7dnd01zZtjaPf1MVETHNZJ83U86U6OXp4IS8NcTD_kpd7OlN_4E-RGGq6hQNppD0gdLQLe5grWsGj7KR0ERV32FNvB0wyBuM59zJ69KCdL4gtGuvv17VdfA3MV0TsJyrpGidFaqCCT43UK_kSOKuj0jft7TB4K8lbsM0c9Pi6Z5C6McoFb3Xm9W4TcYGM6hg9p2JFuBXIyntI8JP9F8Gco8V0X00XS2a2mDlK0WUh-FEYt45ZBii_O1zcRD06-xBq0QEbYXZsj0x42qPjVmjy7TFxgsVKzKJohgObY2F7iPIFiY73PjODr8pYCixH6BTdpOQdLocs8eg0HmgsfPKC5x9CGTyXFPVjKPSqkl-jR1vxfMnVyTyUJQ927Qs4ANSOaVdMdwFZznaR-j7dLNd2ohX9q-EHlYnky-WnIEc3U0vfeI8vfw6nz4Z3nVu7vdcQCQCnlp67xKrHND5bBj7Y2d6dRme4j0Ac3HJTjKjtsXFnKIFt-AY5XaiJXZRVOQCIYKswmZmnOrwLBgCZwouPkW3tbcwkpaQ6TNMv-dxm6eo2K2jGR7yXhTTlS2qNWH9Hp5QLUA1GeIZkYbhluzVAHV595UVMcXlz7tLCjCy42Hhd3wMUBm7-LCTD3MbAqE8rXB_BqlOX_z2-tGTU3rTyvPhYnNaH7_CHZlIgNGtdeaFeTcutqxuSoyJPiGbE21639ZM9WHFonA3HRD-oD_U8dDxFr0GMtGkTje21Ls5hK3xIC2mVQKBSvu2bjxrRARnXxZcmU4zESRuiuWHTCJrDbadcSSYBOF1KAubNxFSj4yswx6CQnh-42RTaGMNLgZ_LqBd0G3pGHHWBFNr9ZEEKJ7MpqcdiIdhAyfYG0puUQZXbyoqnSXZXBTfQqNx2xnPfHLLQjK2FDGhUpEn85d2wh0-wQ0UVFlrAaO4TvBUtFhefYZoCuVNzNp7UVWC0]--></g></svg>